<svg width="72" height="48" viewBox="0 0 72 48" fill="none" xmlns="http://www.w3.org/2000/svg">
    <path d="M29.4088 1.12C30.1528 1.264 30.7048 1.516 31.0648 1.876C31.4488 2.236 31.6408 2.656 31.6408 3.136C31.6408 3.928 31.4128 4.504 30.9568 4.864C30.5248 5.224 29.8288 5.368 28.8688 5.296C26.7088 5.128 25.0168 5.02 23.7928 4.972C22.5928 4.9 21.0088 4.852 19.0408 4.828C18.1528 9.244 17.3368 13.684 16.5928 18.148C16.3288 19.78 16.0528 21.676 15.7648 23.836C15.4768 25.972 15.2848 27.7 15.1888 29.02C15.1408 29.716 14.8528 30.256 14.3248 30.64C13.7968 31 13.1608 31.18 12.4168 31.18C11.6248 31.18 11.0128 30.988 10.5808 30.604C10.1488 30.22 9.93281 29.716 9.93281 29.092C9.93281 28.516 10.0168 27.568 10.1848 26.248C10.3768 24.904 10.5928 23.5 10.8328 22.036C11.0968 20.572 11.3008 19.3 11.4448 18.22C11.7088 16.396 12.0088 14.584 12.3448 12.784C12.6808 10.984 13.0168 9.28 13.3528 7.672C13.4248 7.312 13.5088 6.904 13.6048 6.448C13.7008 5.968 13.8088 5.44 13.9288 4.864C11.5768 4.936 9.72881 5.128 8.38481 5.44C7.04081 5.752 6.08081 6.196 5.50481 6.772C4.95281 7.324 4.67681 8.044 4.67681 8.932C4.67681 9.748 4.91681 10.528 5.39681 11.272C5.49281 11.44 5.54081 11.62 5.54081 11.812C5.54081 12.268 5.26481 12.7 4.71281 13.108C4.18481 13.492 3.63281 13.684 3.05681 13.684C2.64881 13.684 2.31281 13.564 2.04881 13.324C1.56881 12.916 1.17281 12.34 0.860813 11.596C0.548813 10.828 0.392813 9.964 0.392813 9.004C0.392813 6.964 1.05281 5.332 2.37281 4.108C3.71681 2.86 5.74481 1.948 8.45681 1.372C11.1928 0.795998 14.6968 0.507998 18.9688 0.507998C21.6088 0.507998 23.7088 0.555998 25.2688 0.651998C26.8528 0.747998 28.2328 0.903998 29.4088 1.12ZM26.9802 31.18C25.4922 31.18 24.3042 30.64 23.4162 29.56C22.5282 28.48 22.0842 27.064 22.0842 25.312C22.0842 23.392 22.5282 21.58 23.4162 19.876C24.3042 18.148 25.4802 16.768 26.9442 15.736C28.4322 14.68 30.0042 14.152 31.6602 14.152C32.1882 14.152 32.5362 14.26 32.7042 14.476C32.8962 14.668 33.0522 15.028 33.1722 15.556C33.6762 15.46 34.2042 15.412 34.7562 15.412C35.9322 15.412 36.5202 15.832 36.5202 16.672C36.5202 17.176 36.3402 18.376 35.9802 20.272C35.4282 23.032 35.1522 24.952 35.1522 26.032C35.1522 26.392 35.2362 26.68 35.4042 26.896C35.5962 27.112 35.8362 27.22 36.1242 27.22C36.5802 27.22 37.1322 26.932 37.7802 26.356C38.4282 25.756 39.3042 24.796 40.4082 23.476C40.6962 23.14 41.0202 22.972 41.3802 22.972C41.6922 22.972 41.9322 23.116 42.1002 23.404C42.2922 23.692 42.3882 24.088 42.3882 24.592C42.3882 25.552 42.1602 26.296 41.7042 26.824C40.7202 28.048 39.6762 29.08 38.5722 29.92C37.4682 30.76 36.4002 31.18 35.3682 31.18C34.5762 31.18 33.8442 30.916 33.1722 30.388C32.5242 29.836 32.0322 29.092 31.6962 28.156C30.4482 30.172 28.8762 31.18 26.9802 31.18ZM28.2762 27.544C28.8042 27.544 29.3082 27.232 29.7882 26.608C30.2682 25.984 30.6162 25.156 30.8322 24.124L32.1642 17.5C31.1562 17.524 30.2202 17.908 29.3562 18.652C28.5162 19.372 27.8442 20.332 27.3402 21.532C26.8362 22.732 26.5842 24.004 26.5842 25.348C26.5842 26.092 26.7282 26.644 27.0162 27.004C27.3282 27.364 27.7482 27.544 28.2762 27.544ZM58.6864 22.972C58.9984 22.972 59.2384 23.116 59.4064 23.404C59.5984 23.692 59.6944 24.088 59.6944 24.592C59.6944 25.552 59.4664 26.296 59.0104 26.824C57.9784 28.096 56.8624 29.14 55.6624 29.956C54.4864 30.772 53.1424 31.18 51.6304 31.18C50.3584 31.18 49.3264 30.724 48.5344 29.812C47.1664 30.7 45.7384 31.156 44.2504 31.18C43.9384 35.812 43.2304 39.676 42.1264 42.772C41.0224 45.892 39.4024 47.452 37.2664 47.452C35.9704 47.452 35.0104 46.984 34.3864 46.048C33.7624 45.112 33.4504 43.816 33.4504 42.16C33.4504 39.808 33.9904 37.06 35.0704 33.916C36.1504 30.796 37.8184 27.352 40.0744 23.584C40.0744 20.08 40.0504 17.644 40.0024 16.276C39.9784 15.58 40.2544 15.028 40.8304 14.62C41.4064 14.212 42.1264 14.008 42.9904 14.008C43.4944 14.008 43.8544 14.116 44.0704 14.332C44.3104 14.524 44.4424 14.92 44.4664 15.52C44.4664 16.12 44.4784 16.564 44.5024 16.852C45.2704 15.892 46.0264 15.208 46.7704 14.8C47.5144 14.368 48.3064 14.152 49.1464 14.152C50.4904 14.152 51.5824 14.692 52.4224 15.772C53.2864 16.852 53.7184 18.268 53.7184 20.02C53.7184 21.292 53.5144 22.528 53.1064 23.728C52.6984 24.928 52.1344 26.02 51.4144 27.004C51.9184 27.148 52.3384 27.22 52.6744 27.22C53.4664 27.22 54.2224 26.932 54.9424 26.356C55.6624 25.78 56.5864 24.82 57.7144 23.476C58.0024 23.14 58.3264 22.972 58.6864 22.972ZM44.4304 27.724C45.2944 27.532 46.0864 27.064 46.8064 26.32C47.5504 25.552 48.1384 24.616 48.5704 23.512C49.0024 22.384 49.2184 21.208 49.2184 19.984C49.2184 19.264 49.0744 18.724 48.7864 18.364C48.4984 17.98 48.1144 17.788 47.6344 17.788C46.7704 17.788 45.7264 18.7 44.5024 20.524C44.4784 21.58 44.4664 23.128 44.4664 25.168C44.4664 26.272 44.4544 27.124 44.4304 27.724ZM37.5544 43.924C38.2024 43.924 38.7424 42.508 39.1744 39.676C39.6064 36.868 39.8824 33.364 40.0024 29.164C38.9704 31.564 38.1544 33.856 37.5544 36.04C36.9544 38.224 36.6544 40.06 36.6544 41.548C36.6544 42.316 36.7504 42.904 36.9424 43.312C37.1104 43.72 37.3144 43.924 37.5544 43.924ZM69.6824 24.052C69.9944 24.052 70.2344 24.196 70.4024 24.484C70.5944 24.772 70.6904 25.168 70.6904 25.672C70.6904 26.536 70.4864 27.28 70.0784 27.904C69.4064 28.936 68.5184 29.74 67.4144 30.316C66.3344 30.892 65.0384 31.18 63.5264 31.18C61.2224 31.18 59.4344 30.496 58.1624 29.128C56.8904 27.736 56.2544 25.864 56.2544 23.512C56.2544 21.856 56.6024 20.32 57.2984 18.904C57.9944 17.464 58.9544 16.324 60.1784 15.484C61.4264 14.644 62.8304 14.224 64.3904 14.224C65.7824 14.224 66.8984 14.644 67.7384 15.484C68.5784 16.3 68.9984 17.416 68.9984 18.832C68.9984 20.488 68.3984 21.916 67.1984 23.116C66.0224 24.292 64.0064 25.228 61.1504 25.924C61.7264 27.028 62.6984 27.58 64.0664 27.58C65.0504 27.58 65.8544 27.352 66.4784 26.896C67.1264 26.44 67.8704 25.672 68.7104 24.592C68.9984 24.232 69.3224 24.052 69.6824 24.052ZM63.7784 17.752C62.8904 17.752 62.1344 18.268 61.5104 19.3C60.9104 20.332 60.6104 21.58 60.6104 23.044V23.116C62.0264 22.78 63.1424 22.276 63.9584 21.604C64.7744 20.932 65.1824 20.152 65.1824 19.264C65.1824 18.808 65.0504 18.448 64.7864 18.184C64.5464 17.896 64.2104 17.752 63.7784 17.752Z" fill="white"/>
    <path d="M63.7197 43.009C63.8324 43.009 63.919 43.0653 63.9797 43.178C64.0404 43.2907 64.0707 43.4337 64.0707 43.607C64.0707 43.8237 64.0404 43.9927 63.9797 44.114C63.919 44.2267 63.8237 44.3047 63.6937 44.348C63.1737 44.53 62.6017 44.634 61.9777 44.66C61.8044 45.3793 61.475 45.96 60.9897 46.402C60.513 46.844 59.9844 47.065 59.4037 47.065C58.5284 47.065 57.8914 46.7313 57.4927 46.064C57.094 45.3967 56.8947 44.4303 56.8947 43.165C56.8947 42.047 57.0334 40.8337 57.3107 39.525C57.588 38.2077 57.991 37.0897 58.5197 36.171C59.057 35.2437 59.694 34.78 60.4307 34.78C60.8294 34.78 61.15 34.9533 61.3927 35.3C61.6354 35.638 61.7567 36.08 61.7567 36.626C61.7567 37.3367 61.6224 38.043 61.3537 38.745C61.085 39.447 60.6387 40.1837 60.0147 40.955C60.5954 40.9983 61.0677 41.241 61.4317 41.683C61.7957 42.1163 62.0124 42.6537 62.0817 43.295C62.489 43.269 62.9744 43.1823 63.5377 43.035C63.5897 43.0177 63.6504 43.009 63.7197 43.009ZM60.1317 36.067C59.9584 36.067 59.7677 36.327 59.5597 36.847C59.3604 37.3583 59.174 38.056 59.0007 38.94C58.8274 39.824 58.6974 40.7903 58.6107 41.839C59.1827 40.7903 59.6377 39.8673 59.9757 39.07C60.3224 38.264 60.4957 37.549 60.4957 36.925C60.4957 36.6477 60.461 36.4353 60.3917 36.288C60.331 36.1407 60.2444 36.067 60.1317 36.067ZM59.4557 45.687C59.7244 45.687 59.9627 45.5743 60.1707 45.349C60.3787 45.1237 60.5174 44.7987 60.5867 44.374C60.318 44.192 60.11 43.9537 59.9627 43.659C59.824 43.3643 59.7547 43.0523 59.7547 42.723C59.7547 42.6017 59.772 42.437 59.8067 42.229H59.7677C59.4124 42.229 59.1134 42.4067 58.8707 42.762C58.6367 43.1087 58.5197 43.5767 58.5197 44.166C58.5197 44.66 58.6107 45.037 58.7927 45.297C58.9834 45.557 59.2044 45.687 59.4557 45.687ZM64.6512 40.084C64.2872 40.084 64.0142 40.0017 63.8322 39.837C63.6502 39.6637 63.5592 39.4253 63.5592 39.122C63.5592 38.8187 63.6762 38.5673 63.9102 38.368C64.1529 38.16 64.4519 38.056 64.8072 38.056C65.1279 38.056 65.3879 38.134 65.5872 38.29C65.7866 38.446 65.8862 38.667 65.8862 38.953C65.8862 39.2997 65.7736 39.577 65.5482 39.785C65.3229 39.9843 65.0239 40.084 64.6512 40.084ZM64.5472 47.065C63.9839 47.065 63.5722 46.8657 63.3122 46.467C63.0609 46.0683 62.9352 45.5397 62.9352 44.881C62.9352 44.491 62.9829 43.9927 63.0782 43.386C63.1822 42.7707 63.3122 42.1987 63.4682 41.67C63.5462 41.3927 63.6502 41.202 63.7802 41.098C63.9102 40.994 64.1182 40.942 64.4042 40.942C64.8462 40.942 65.0672 41.0893 65.0672 41.384C65.0672 41.6007 64.9849 42.1033 64.8202 42.892C64.6122 43.8453 64.5082 44.491 64.5082 44.829C64.5082 45.089 64.5429 45.2883 64.6122 45.427C64.6816 45.5657 64.7986 45.635 64.9632 45.635C65.1192 45.635 65.3142 45.5267 65.5482 45.31C65.7822 45.0933 66.0942 44.751 66.4842 44.283C66.5882 44.1617 66.7052 44.101 66.8352 44.101C66.9479 44.101 67.0346 44.153 67.0952 44.257C67.1646 44.361 67.1992 44.504 67.1992 44.686C67.1992 45.0327 67.1169 45.3013 66.9522 45.492C66.0942 46.5407 65.2926 47.065 64.5472 47.065ZM67.0704 47.065C66.7411 47.065 66.5071 46.8917 66.3684 46.545C66.2384 46.1983 66.1734 45.6437 66.1734 44.881C66.1734 43.7543 66.3338 42.684 66.6544 41.67C66.7324 41.4187 66.8581 41.2367 67.0314 41.124C67.2134 41.0027 67.4648 40.942 67.7854 40.942C67.9588 40.942 68.0801 40.9637 68.1494 41.007C68.2188 41.0503 68.2534 41.1327 68.2534 41.254C68.2534 41.3927 68.1884 41.7047 68.0584 42.19C67.9718 42.5367 67.9024 42.84 67.8504 43.1C67.7984 43.36 67.7551 43.6807 67.7204 44.062C68.0064 43.3167 68.3271 42.71 68.6824 42.242C69.0378 41.774 69.3844 41.4403 69.7224 41.241C70.0691 41.0417 70.3854 40.942 70.6714 40.942C70.9488 40.942 71.1568 41.0157 71.2954 41.163C71.4428 41.3017 71.5164 41.5097 71.5164 41.787C71.5164 42.0123 71.4688 42.437 71.3734 43.061C71.2868 43.5897 71.2174 44.0923 71.1654 44.569C71.1134 45.037 71.0874 45.5613 71.0874 46.142C71.0874 46.4713 71.0181 46.7097 70.8794 46.857C70.7494 46.9957 70.5328 47.065 70.2294 47.065C69.9434 47.065 69.7354 46.9913 69.6054 46.844C69.4754 46.6967 69.4104 46.4757 69.4104 46.181C69.4104 45.8343 69.4711 45.2623 69.5924 44.465C69.6964 43.7717 69.7484 43.3297 69.7484 43.139C69.7484 43.0003 69.7008 42.931 69.6054 42.931C69.4928 42.931 69.3324 43.0783 69.1244 43.373C68.9251 43.659 68.7171 44.0403 68.5004 44.517C68.2924 44.9937 68.1234 45.4963 67.9934 46.025C67.8981 46.4323 67.7854 46.7097 67.6554 46.857C67.5341 46.9957 67.3391 47.065 67.0704 47.065Z" fill="#ABABAB"/>
</svg>
